<?xml version="1.0" encoding="utf-8"?>
<!-- Svg Vector Icons : http://www.onlinewebfonts.com/icon -->
<!DOCTYPE svg PUBLIC "-//W3C//DTD SVG 1.1//EN" "http://www.w3.org/Graphics/SVG/1.1/DTD/svg11.dtd">
<svg version="1.1" xmlns="http://www.w3.org/2000/svg" xmlns:xlink="http://www.w3.org/1999/xlink" x="0px" y="0px" viewBox="0 0 1000 1000" enable-background="new 0 0 1000 1000" xml:space="preserve">
<metadata> Svg Vector Icons : http://www.onlinewebfonts.com/icon </metadata>
<g><path d="M541.7,14.9c84.5,20.2,142.6,89.7,143.6,175.8c1.1,91.8,0.3,183.6,0.2,275.5c0,4.5-0.9,9-1.5,14.5c-122.4,0-243.8,0-367.2,0c-0.4-7.8-1.1-15.6-1.1-23.4c-0.1-83.2-0.1-166.3,0-249.5c0.1-108.3,57.6-176.7,164.7-196.6C483.5,10.6,510.1,7.4,541.7,14.9z"/><path d="M245.8,518.7c9.8,0,19.6,0,30.3,0c1.5,25.9,1.7,49.7,4.5,73.3c13.2,111,98.9,190.4,211.2,196.7c103.8,5.8,201.8-67.4,225.5-171.1c6.6-28.8,5.2-59.3,7.5-89c0.2-2.5,1-5,1.7-8.3c8.4,0,16.1,0,26.2,0c3.6,50,1.9,99-19.5,145.6c-36.5,79.1-97.9,128-182.8,145.8c-18.3,3.8-22.3,11.1-21.5,27.5c1.1,21.2,1,42.6,0,63.8c-0.7,14.1,5.6,16.9,18.2,19.5c41.4,8.3,83,17.1,123.4,29.2c17.4,5.2,36.4,14.8,38.5,38.4c-137.1,0-274.3,0-411.4,0c2.5-23.2,21.2-32.8,38.6-38.4c37-11.8,75.1-20.5,113.2-28.6c12.1-2.6,17.2-5.8,16.7-18.6c-0.9-22.5-1.5-45.2,0.2-67.7c1.3-17-5.3-22-21-25.9c-105.3-26.4-169.8-93.2-193.1-199.4c-2.4-10.9-4.4-21.9-6.6-32.8C245.8,558.6,245.8,538.6,245.8,518.7z"/><path d="M318.4,520.1c121.2,0,242.6,0,363.8,0c13.6,79.9-10.1,147.8-73.1,193.6c-62.7,45.5-145.9,47.3-209.6,5.4C335.5,676.9,306.2,606.2,318.4,520.1z"/></g>
</svg>